<svg width="80" height="80" viewBox="0 0 80 80" fill="none" xmlns="http://www.w3.org/2000/svg">
<rect width="80" height="80" fill="white"/>
<path d="M22.6601 22.8972C18.0415 27.6404 15.5 33.9197 15.5 40.5758V61.0006C15.5 62.9332 17.0668 64.5 18.9994 64.5C20.9319 64.5 22.4988 62.9332 22.4988 61.0006V40.5758C22.4988 35.7521 24.3361 31.2086 27.676 27.7788L27.676 27.7788C30.9932 24.3717 35.3691 22.4988 39.9984 22.4988C44.6278 22.4988 49.0036 24.3686 52.3205 27.7786L52.3205 27.7786C55.6574 31.2087 57.4979 35.7523 57.4979 40.5758V61.0006C57.4979 62.9332 59.0648 64.5 60.9973 64.5C62.9299 64.5 64.4967 62.9332 64.4967 61.0006V40.5758C64.4967 33.9197 61.9552 27.6404 57.3366 22.8972C52.7007 18.1302 46.5405 15.5 39.9984 15.5C33.4593 15.5 27.2992 18.1302 22.6601 22.8972ZM22.6601 22.8972L23.0184 23.246L22.6601 22.8972Z" fill="black" stroke="black"/>
<path d="M39.9984 39.4983C38.0658 39.4983 36.499 41.0651 36.499 42.9977V60.9973C36.499 62.9298 38.0658 64.4966 39.9984 64.4966C41.931 64.4966 43.4978 62.9298 43.4978 60.9973V42.9977C43.4978 41.0651 41.931 39.4983 39.9984 39.4983Z" fill="#FA5E06" stroke="#FA5E06"/>
</svg>